<?xml version="1.0" encoding="utf-8"?><svg viewBox="0 0 30 22" xmlns="http://www.w3.org/2000/svg" xmlns:xlink="http://www.w3.org/1999/xlink"><style>:root>svg{display:none}:root>svg:target{display:block}</style><svg fill="none" viewBox="0 0 20 20" id="bookmark" xmlns="http://www.w3.org/2000/svg"><path d="M18.203.661a1.49 1.49 0 00-.694-.542A1.464 1.464 0 0016.927 0H3.073c-.202 0-.396.04-.581.119a1.49 1.49 0 00-.694.542c-.172.247-.258.52-.258.82v17.038c0 .3.086.573.258.82.172.247.403.428.694.542.185.08.379.119.581.119.415 0 .78-.145 1.098-.436L10 13.959l5.829 5.605c.308.282.674.423 1.097.423.22 0 .414-.035.581-.106a1.49 1.49 0 00.694-.542c.172-.247.258-.52.258-.82V1.481c0-.3-.086-.573-.258-.82zM16.768 18.11l-5.591-5.367L10 11.619l-1.176 1.124-5.592 5.367V1.692h13.536V18.11z" fill="#000" fill-opacity=".5"/></svg><svg viewBox="0 0 22 22" id="call" xmlns="http://www.w3.org/2000/svg"><g clip-path="url(#bclip0)"><path d="M18.956 15.312c-1.33-1.137-2.678-1.825-3.99-.69l-.785.686c-.573.498-1.64 2.824-5.762-1.918-4.122-4.737-1.67-5.474-1.095-5.968l.788-.687c1.306-1.137.813-2.57-.129-4.044L7.415 1.8C6.47.328 5.44-.638 4.13.498l-.708.618c-.579.422-2.196 1.792-2.588 4.395-.473 3.123 1.017 6.7 4.43 10.624 3.408 3.926 6.745 5.898 9.906 5.864 2.627-.028 4.214-1.438 4.71-1.95l.71-.62c1.306-1.134.495-2.29-.835-3.43l-.8-.687z"/></g><defs><clipPath id="bclip0"><path d="M0 0h22v22H0z"/></clipPath></defs></svg><svg fill="none" viewBox="0 0 20 20" id="chat" xmlns="http://www.w3.org/2000/svg"><path fill="#fff" d="M0 0h20v20H0z"/><path d="M11.875 3.75h-7.5a.625.625 0 000 1.25h7.5a.625.625 0 000-1.25zM9.375 6.25h-5a.625.625 0 000 1.25h5a.625.625 0 000-1.25z" fill="#000" fill-opacity=".5"/><path d="M13.75 0H2.5A2.503 2.503 0 000 2.5V15a.624.624 0 001.025.48l3.576-2.98h9.149c1.379 0 2.5-1.121 2.5-2.5V2.5c0-1.379-1.121-2.5-2.5-2.5zM15 10c0 .689-.56 1.25-1.25 1.25H4.375a.625.625 0 00-.4.145L1.25 13.666V2.5c0-.689.56-1.25 1.25-1.25h11.25c.69 0 1.25.561 1.25 1.25V10z" fill="#000" fill-opacity=".5"/><path d="M17.5 5a.625.625 0 000 1.25c.69 0 1.25.561 1.25 1.25v10.574l-2.11-1.688a.63.63 0 00-.39-.136H7.5c-.69 0-1.25-.561-1.25-1.25v-.625a.625.625 0 00-1.25 0V15c0 1.379 1.121 2.5 2.5 2.5h8.53l2.954 2.364a.63.63 0 00.662.075.627.627 0 00.354-.564V7.5C20 6.121 18.879 5 17.5 5z" fill="#000" fill-opacity=".5"/></svg><svg fill="none" viewBox="0 0 22 22" id="clock" xmlns="http://www.w3.org/2000/svg"><path d="M14.92 12.943l-3.068-2.3V5.955a.851.851 0 10-1.704 0v5.112a.85.85 0 00.34.682l3.409 2.556c.153.115.332.17.51.17a.85.85 0 00.512-1.534z" fill="#EA0016"/><path d="M11 0C4.934 0 0 4.934 0 11s4.934 11 11 11 11-4.934 11-11S17.066 0 11 0zm0 20.296c-5.125 0-9.296-4.17-9.296-9.296 0-5.125 4.17-9.296 9.296-9.296 5.126 0 9.296 4.17 9.296 9.296 0 5.125-4.17 9.296-9.296 9.296z" fill="#EA0016"/></svg><svg fill="none" viewBox="0 0 19 19" id="placeholder" xmlns="http://www.w3.org/2000/svg"><path d="M9.5 0C5.548 0 2.333 3.215 2.333 7.167c0 5.689 6.398 11.405 6.67 11.646a.751.751 0 001.008-.015c.272-.254 6.656-6.284 6.656-11.631C16.667 3.216 13.451 0 9.5 0zm0 10.584a3.417 3.417 0 110-6.834 3.417 3.417 0 010 6.834z" fill="#000" fill-opacity=".4"/></svg><svg fill="none" viewBox="0 0 20 20" id="search" xmlns="http://www.w3.org/2000/svg"><g clip-path="url(#fclip0)" fill="#000" fill-opacity=".5"><path d="M12.639 12.907a5.552 5.552 0 005.545-5.545 5.552 5.552 0 00-5.546-5.546 5.552 5.552 0 00-5.545 5.546 5.551 5.551 0 005.546 5.545zm0-10.31a4.77 4.77 0 014.763 4.765 4.77 4.77 0 01-4.764 4.764 4.77 4.77 0 01-4.763-4.764 4.77 4.77 0 014.764-4.764z"/><path d="M12.58 14.84c4.092 0 7.42-3.33 7.42-7.42C20 3.328 16.672 0 12.58 0 8.49 0 5.16 3.328 5.16 7.42c0 1.552.48 2.995 1.3 4.188L5.245 12.82l-.166-.165a.39.39 0 00-.552 0L.583 16.6A1.979 1.979 0 000 18.01c0 .532.207 1.032.583 1.408.376.376.877.583 1.408.583.532 0 1.033-.207 1.409-.583l3.944-3.945a.39.39 0 000-.552l-.165-.165 1.213-1.214a7.377 7.377 0 004.188 1.298zm0-14.059A6.646 6.646 0 0119.22 7.42a6.646 6.646 0 01-6.639 6.638A6.646 6.646 0 015.942 7.42 6.646 6.646 0 0112.58.78zM2.847 18.864a1.203 1.203 0 01-.856.355 1.212 1.212 0 01-.856-2.066l3.669-3.669.165.166 1.546 1.546-3.668 3.668zm3.78-4.662l-.829-.828 1.14-1.141c.255.297.532.574.83.828l-1.142 1.141z"/><path d="M11.301 6.335a.39.39 0 00.39-.39.948.948 0 011.057-.941.947.947 0 01.351 1.767 1.636 1.636 0 00-.851 1.418v.557a.39.39 0 10.78 0V8.19c0-.298.174-.58.453-.736a1.73 1.73 0 00.874-1.704 1.733 1.733 0 00-1.521-1.522 1.73 1.73 0 00-1.923 1.717c0 .216.174.39.39.39zM12.638 9.878a.393.393 0 00-.39.391.392.392 0 00.39.39.392.392 0 00.39-.39.393.393 0 00-.39-.39z"/></g><defs><clipPath id="fclip0"><path fill="#fff" d="M0 0h20v20H0z"/></clipPath></defs></svg><svg fill="none" viewBox="0 0 20 20" id="telephone" xmlns="http://www.w3.org/2000/svg"><g clip-path="url(#gclip0)" fill="#000" fill-opacity=".5"><path d="M19.234 4.084c-.768-1.056-2.112-2.01-3.785-2.684A14.945 14.945 0 0010.01.356a14.925 14.925 0 00-5.444 1.028c-1.676.67-3.023 1.618-3.793 2.672C.032 5.068-.181 6.158.155 7.21A1.653 1.653 0 001.74 8.352l2.498.002h.003c.498 0 .966-.218 1.284-.598a1.642 1.642 0 00.349-1.392l-.132-.511c.728-.347 2.377-1.018 4.26-1.008 1.883.01 3.531.68 4.26 1.028l-.134.508a1.642 1.642 0 00.344 1.394 1.67 1.67 0 001.286.602l2.498.003h.002c.728 0 1.365-.457 1.585-1.138.34-1.051.13-2.143-.608-3.158z"/><path d="M15.649 10.93l-1.863-1.956a.597.597 0 00-.432-.185H12.15v-.814a.597.597 0 00-1.194 0v.814H9.045v-.814a.597.597 0 00-1.194 0v.814H6.647a.597.597 0 00-.432.185L4.352 10.93a8.176 8.176 0 00-2.265 5.663v2.455c0 .33.268.597.597.597h14.633c.33 0 .596-.268.596-.597v-2.455a8.176 8.176 0 00-2.264-5.663zM10 17.463a3.127 3.127 0 01-3.123-3.123A3.127 3.127 0 0110 11.216a3.127 3.127 0 013.124 3.124A3.127 3.127 0 0110 17.463z"/><path d="M10 12.41c-1.064 0-1.93.865-1.93 1.93 0 1.064.866 1.93 1.93 1.93s1.93-.866 1.93-1.93c0-1.065-.866-1.93-1.93-1.93z"/></g><defs><clipPath id="gclip0"><path fill="#fff" d="M0 0h20v20H0z"/></clipPath></defs></svg><svg fill="none" viewBox="0 0 30 22" id="truck" xmlns="http://www.w3.org/2000/svg"><path d="M28.982 9.858l-2.043-.884-1.735-3.376a2.732 2.732 0 00-2.458-1.493h-2.987V3.26c0-1.527-1.22-2.773-2.746-2.773H2.733C1.206.488 0 1.74 0 3.26v12.927a1.684 1.684 0 001.661 1.707h.382c0 .067-.007.094-.007.134a3.47 3.47 0 006.94.027v-.033c0-.047 0-.067-.007-.134h11.54v.134a3.47 3.47 0 006.939.026v-.033-.134h.864A1.69 1.69 0 0030 16.194v-4.782a1.68 1.68 0 00-1.018-1.554zM5.512 20.18a2.127 2.127 0 01-2.13-2.13c0-1.178.952-2.13 2.13-2.13 1.18 0 2.13.952 2.13 2.13 0 1.173-.957 2.13-2.13 2.13zm12.907-3.61H8.654a3.441 3.441 0 00-3.142-2.002 3.423 3.423 0 00-3.14 2.002h-.684c-.208 0-.348-.16-.348-.368v-3.45h17.08v3.818zm0-13.302v8.145H1.34V3.267c0-.783.61-1.433 1.394-1.433h14.28a1.42 1.42 0 011.406 1.427v.006zm1.34 2.184h2.987a1.414 1.414 0 011.273.757l1.34 2.592h-5.6V5.45zm4.226 14.728a2.127 2.127 0 01-2.13-2.13c0-1.178.951-2.13 2.13-2.13a2.131 2.131 0 010 4.26zm4.682-3.978c0 .207-.14.368-.348.368h-1.193a3.467 3.467 0 00-6.282 0h-1.085v-6.43h6.564l2.13.938a.394.394 0 01.214.362V16.2z" fill="#000"/></svg><svg viewBox="0 0 20 20" id="user" xmlns="http://www.w3.org/2000/svg"><path d="M10 0a5.28 5.28 0 00-5.273 5.273A5.28 5.28 0 0010 10.547a5.28 5.28 0 005.273-5.274A5.28 5.28 0 0010 0zM16.561 13.992a7.518 7.518 0 00-5.39-2.273H8.829a7.518 7.518 0 00-5.39 2.273 7.685 7.685 0 00-2.227 5.422c0 .324.262.586.586.586h16.406a.586.586 0 00.586-.586 7.685 7.685 0 00-2.228-5.422z"/></svg></svg>